<svg xmlns="http://www.w3.org/2000/svg" viewBox="0 0 64 64" width="64" height="64">
  <defs>
    <!-- Gradiente principal del fondo -->
    <linearGradient id="bgGradient" x1="0%" y1="0%" x2="100%" y2="100%">
      <stop offset="0%" style="stop-color:#7c3aed;stop-opacity:1" />
      <stop offset="50%" style="stop-color:#a855f7;stop-opacity:1" />
      <stop offset="100%" style="stop-color:#ec4899;stop-opacity:1" />
    </linearGradient>
    
    <!-- Gradiente para el icono -->
    <linearGradient id="iconGradient" x1="0%" y1="0%" x2="100%" y2="100%">
      <stop offset="0%" style="stop-color:#ffffff;stop-opacity:1" />
      <stop offset="100%" style="stop-color:#f3f4f6;stop-opacity:1" />
    </linearGradient>
    
    <!-- Sombra suave -->
    <filter id="shadow" x="-50%" y="-50%" width="200%" height="200%">
      <feGaussianBlur in="SourceAlpha" stdDeviation="2"/>
      <feOffset dx="0" dy="2" result="offsetblur"/>
      <feComponentTransfer>
        <feFuncA type="linear" slope="0.3"/>
      </feComponentTransfer>
      <feMerge>
        <feMergeNode/>
        <feMergeNode in="SourceGraphic"/>
      </feMerge>
    </filter>
  </defs>
  
  <!-- Fondo circular con gradiente -->
  <circle cx="32" cy="32" r="30" fill="url(#bgGradient)" />
  
  <!-- Sombra del fondo -->
  <circle cx="32" cy="34" r="30" fill="#000000" opacity="0.15" />
  <circle cx="32" cy="32" r="30" fill="url(#bgGradient)" />
  
  <!-- Icono de ubicación/marcador de mapa mejorado -->
  <path d="M32 10 C22 10 14 18 14 28 C14 38 32 56 32 56 C32 56 50 38 50 28 C50 18 42 10 32 10 Z" 
        fill="url(#iconGradient)" 
        filter="url(#shadow)"
        stroke="#ffffff"
        stroke-width="0.5"
        opacity="0.98"/>
  
  <!-- Punto central con gradiente -->
  <circle cx="32" cy="28" r="7" fill="url(#bgGradient)" />
  <circle cx="32" cy="28" r="5" fill="#ffffff" opacity="0.9" />
  <circle cx="32" cy="28" r="3" fill="url(#bgGradient)" />
  
  <!-- Líneas de cuadrícula de mapa mejoradas -->
  <g opacity="0.4">
    <line x1="18" y1="18" x2="22" y2="18" stroke="#ffffff" stroke-width="1.2" stroke-linecap="round" />
    <line x1="18" y1="22" x2="22" y2="22" stroke="#ffffff" stroke-width="1.2" stroke-linecap="round" />
    <line x1="42" y1="18" x2="46" y2="18" stroke="#ffffff" stroke-width="1.2" stroke-linecap="round" />
    <line x1="42" y1="22" x2="46" y2="22" stroke="#ffffff" stroke-width="1.2" stroke-linecap="round" />
    <!-- Líneas verticales -->
    <line x1="20" y1="16" x2="20" y2="24" stroke="#ffffff" stroke-width="1.2" stroke-linecap="round" />
    <line x1="44" y1="16" x2="44" y2="24" stroke="#ffffff" stroke-width="1.2" stroke-linecap="round" />
  </g>
  
  <!-- Brillo superior -->
  <ellipse cx="32" cy="20" rx="8" ry="4" fill="#ffffff" opacity="0.2" />
</svg>
